<?xml version="1.0" encoding="UTF-8"?>
<svg id="Layer_1" data-name="Layer 1" xmlns="http://www.w3.org/2000/svg" viewBox="0 0 216 216">
  <defs>
    <style>
      .cls-1 {
        fill: #4a95d0;
      }

      .cls-1, .cls-2 {
        stroke-width: 0px;
      }

      .cls-2 {
        fill: #fff;
      }
    </style>
  </defs>
  <rect class="cls-1" width="216" height="216"/>
  <g>
    <path class="cls-2" d="M118.12,116.67c-5.25,0-9.5-4.24-9.51-9.49s4.24-9.5,9.49-9.51c5.25,0,9.5,4.24,9.51,9.49,0,0,0,0,0,0,0,5.24-4.25,9.49-9.49,9.5M118.12,89.95c-9.51,0-17.22,7.71-17.22,17.22s7.71,17.22,17.22,17.22,17.22-7.71,17.22-17.22h0c-.02-9.51-7.72-17.21-17.22-17.22"/>
    <path class="cls-2" d="M146.73,94.39l-.21.21-.23.22-.15-.28-.14-.23c-1.25-2.31-3.52-3.88-6.11-4.24l-.65-.13v34.47l.65-.09c4.1-.47,7.17-3.98,7.09-8.11v-9.04c.04-4.85,3.7-8.9,8.52-9.44l.51-.06v-7.72l-.62.07c-3.31.43-6.37,1.97-8.68,4.38"/>
    <path class="cls-2" d="M40.83,116.68c-5.25,0-9.5-4.25-9.5-9.5s4.25-9.5,9.5-9.5,9.5,4.25,9.5,9.5c0,5.24-4.26,9.49-9.5,9.5M51.89,93.34l-.14.19-.14.19-.19-.14-.18-.14c-7.59-5.73-18.39-4.23-24.13,3.36-5.73,7.59-4.23,18.39,3.36,24.13,2.99,2.26,6.63,3.48,10.37,3.48,3.76.01,7.41-1.22,10.4-3.5l.18-.14.19-.15.14.2.14.19c1.31,1.81,3.31,3.01,5.53,3.32l.64.09v-34.47l-.64.09c-2.22.31-4.21,1.5-5.53,3.31"/>
    <path class="cls-2" d="M175.16,116.68c-5.25,0-9.5-4.26-9.49-9.51,0-5.25,4.26-9.5,9.51-9.49,5.24,0,9.49,4.26,9.49,9.5,0,5.24-4.26,9.49-9.5,9.5M191.74,90.04c-2.22.31-4.21,1.5-5.54,3.31l-.14.18-.14.2-.19-.14-.18-.14c-7.58-5.75-18.38-4.26-24.13,3.31-5.75,7.58-4.26,18.38,3.31,24.13,3,2.27,6.66,3.5,10.42,3.5,3.76.01,7.41-1.22,10.4-3.5l.18-.14.19-.15.14.2.14.19c1.32,1.81,3.32,3.01,5.54,3.32l.64.09v-34.45l-.64.09Z"/>
    <path class="cls-2" d="M79.72,97.67h0c5.25,0,9.5,4.26,9.49,9.51,0,5.25-4.26,9.5-9.51,9.49-5.24,0-9.49-4.26-9.49-9.5,0-5.25,4.27-9.5,9.52-9.5,0,0,0,0,0,0M90.49,120.61c7.03-5.59,8.56-15.65,3.52-23.09-.24-.37-.51-.72-.79-1.07,2.02-1.33,3.36-3.46,3.68-5.85l.1-.65h-17.35c-9.51.02-17.2,7.74-17.18,17.25.01,5.22,2.39,10.15,6.46,13.41-.74.59-1.43,1.23-2.06,1.93l5.25,5.79c3.12-4.22,9.07-5.1,13.29-1.98,4.22,3.12,5.1,9.07,1.98,13.29-.74,1-1.66,1.84-2.73,2.48l5.26,5.79c7.63-5.66,9.23-16.44,3.56-24.07-.88-1.19-1.92-2.26-3.07-3.19"/>
  </g>
</svg>